<svg width="100" height="50" viewBox="0 0 100 50" fill="none" xmlns="http://www.w3.org/2000/svg">
<g clip-path="url(#clip0_170_486)">
<path d="M14.0609 5.57334C15.5922 5.57334 18.3625 6.30615 22.8547 10.7312L25.0812 12.9233L27.275 10.6952C30.3937 7.52646 33.7125 5.55771 35.9359 5.55771C38.9344 5.55771 41.2984 6.58271 43.6031 8.88271C45.775 11.0483 46.9719 13.9296 46.9719 16.9937C46.9734 20.0593 45.7781 22.9421 43.5828 25.1327C43.4047 25.314 33.9641 35.4983 26.0547 44.0343C25.6828 44.389 25.2562 44.4405 25.0297 44.4405C24.8062 44.4405 24.3859 44.3905 24.0141 44.0452C22.0875 41.9015 8.11718 26.3687 6.49374 24.7468C4.32031 22.578 3.12343 19.6952 3.12343 16.6312C3.12343 13.5671 4.32031 10.6874 6.49531 8.51865C8.60937 6.40615 11.0844 5.57334 14.0609 5.57334ZM14.0609 2.44834C10.3234 2.44834 7.02968 3.56553 4.28749 6.30615C-1.42969 12.0077 -1.42969 21.253 4.28749 26.9577C5.92031 28.5905 21.7609 46.2124 21.7609 46.2124C22.6641 47.1155 23.8484 47.564 25.0312 47.564C26.2141 47.564 27.3937 47.1155 28.2984 46.2124C28.2984 46.2124 45.6266 27.5093 45.8109 27.3233C51.525 21.6171 51.525 12.3702 45.8109 6.66865C42.9734 3.83584 39.8031 2.43115 35.9375 2.43115C32.2437 2.43115 28.125 5.37646 25.0484 8.50146C21.875 5.37646 17.8844 2.44834 14.0625 2.44834H14.0609Z" fill="black"/>
</g>
<g clip-path="url(#clip1_170_486)">
<path d="M96.4322 26.3004L75 46.4011L53.5678 26.3004C48.5789 20.9709 48.8565 12.6065 54.1844 7.6189L54.6685 7.16607C59.9968 2.17868 68.3607 2.45434 73.3498 7.7839L75 9.50194L76.6504 7.7839C81.6394 2.45434 90.0035 2.17868 95.3322 7.16607L95.8163 7.6189C101.143 12.6065 101.421 20.9709 96.4322 26.3004Z" fill="black"/>
</g>
<defs>
<clipPath id="clip0_170_486">
<rect width="50" height="50" fill="white"/>
</clipPath>
<clipPath id="clip1_170_486">
<rect width="50" height="50" fill="white" transform="translate(50)"/>
</clipPath>
</defs>
</svg>
