<svg width="559" height="168" viewBox="0 0 559 168" fill="none" xmlns="http://www.w3.org/2000/svg">
<path d="M83.743 0.276978C37.494 0.276978 0 37.77 0 84.019C0 130.27 37.494 167.76 83.743 167.76C129.997 167.76 167.487 130.27 167.487 84.019C167.487 37.773 129.997 0.280978 83.742 0.280978L83.743 0.276978ZM122.147 121.057C120.647 123.517 117.427 124.297 114.967 122.787C95.305 110.777 70.553 108.057 41.403 114.717C38.594 115.357 35.794 113.597 35.154 110.787C34.511 107.977 36.264 105.177 39.08 104.537C70.98 97.249 98.343 100.387 120.417 113.877C122.877 115.387 123.657 118.597 122.147 121.057ZM132.397 98.255C130.507 101.327 126.487 102.297 123.417 100.407C100.907 86.571 66.594 82.564 39.969 90.646C36.516 91.689 32.869 89.743 31.821 86.296C30.781 82.843 32.728 79.203 36.175 78.153C66.588 68.925 104.397 73.395 130.247 89.28C133.317 91.17 134.287 95.189 132.397 98.255ZM133.277 74.511C106.287 58.48 61.757 57.006 35.988 64.827C31.85 66.082 27.474 63.746 26.22 59.608C24.966 55.468 27.3 51.095 31.441 49.837C61.022 40.857 110.197 42.592 141.271 61.039C145.001 63.248 146.221 68.055 144.011 71.772C141.811 75.494 136.991 76.721 133.281 74.511H133.277ZM227.837 77.583C213.377 74.135 210.807 71.715 210.807 66.63C210.807 61.826 215.327 58.593 222.057 58.593C228.577 58.593 235.037 61.048 241.817 66.102C242.017 66.255 242.277 66.316 242.527 66.276C242.787 66.238 243.007 66.099 243.157 65.89L250.217 55.938C250.507 55.528 250.427 54.963 250.037 54.65C241.967 48.177 232.887 45.03 222.267 45.03C206.657 45.03 195.747 54.399 195.747 67.804C195.747 82.179 205.157 87.269 221.417 91.198C235.247 94.385 237.587 97.055 237.587 101.827C237.587 107.117 232.867 110.407 225.267 110.407C216.827 110.407 209.937 107.557 202.237 100.897C202.047 100.727 201.787 100.657 201.547 100.667C201.287 100.687 201.057 100.807 200.897 100.997L192.977 110.417C192.647 110.817 192.687 111.397 193.067 111.737C202.027 119.737 213.047 123.957 224.947 123.957C241.767 123.957 252.637 114.767 252.637 100.537C252.667 88.53 245.477 81.88 227.867 77.596L227.837 77.583ZM290.697 63.323C283.407 63.323 277.427 66.195 272.487 72.08V65.456C272.487 64.933 272.067 64.507 271.547 64.507H258.597C258.077 64.507 257.657 64.933 257.657 65.456V139.057C257.657 139.577 258.077 140.007 258.597 140.007H271.547C272.067 140.007 272.487 139.577 272.487 139.057V115.827C277.427 121.357 283.407 124.067 290.697 124.067C304.247 124.067 317.967 113.637 317.967 93.698C317.987 73.755 304.267 63.322 290.707 63.322L290.697 63.323ZM302.907 93.698C302.907 103.847 296.657 110.937 287.697 110.937C278.847 110.937 272.167 103.527 272.167 93.698C272.167 83.868 278.847 76.46 287.697 76.46C296.507 76.459 302.907 83.708 302.907 93.698ZM353.117 63.323C335.667 63.323 321.997 76.759 321.997 93.915C321.997 110.887 335.577 124.177 352.907 124.177C370.417 124.177 384.127 110.787 384.127 93.698C384.127 76.667 370.507 63.325 353.117 63.325V63.323ZM353.117 111.037C343.837 111.037 336.837 103.577 336.837 93.693C336.837 83.764 343.597 76.559 352.907 76.559C362.247 76.559 369.287 84.016 369.287 93.91C369.287 103.837 362.487 111.037 353.117 111.037ZM421.387 64.507H407.137V49.941C407.137 49.419 406.717 48.993 406.197 48.993H393.247C392.727 48.993 392.297 49.419 392.297 49.941V64.507H386.077C385.557 64.507 385.137 64.933 385.137 65.456V76.583C385.137 77.105 385.557 77.532 386.077 77.532H392.297V106.327C392.297 117.957 398.087 123.857 409.517 123.857C414.157 123.857 418.007 122.897 421.637 120.837C421.937 120.677 422.117 120.357 422.117 120.017V109.417C422.117 109.097 421.947 108.787 421.667 108.617C421.387 108.437 421.037 108.427 420.747 108.577C418.257 109.827 415.847 110.407 413.147 110.407C408.997 110.407 407.137 108.517 407.137 104.297V77.537H421.387C421.907 77.537 422.327 77.111 422.327 76.588V65.462C422.347 64.939 421.927 64.513 421.397 64.513L421.387 64.507ZM471.027 64.564V62.775C471.027 57.512 473.047 55.165 477.567 55.165C480.267 55.165 482.437 55.701 484.867 56.511C485.167 56.605 485.477 56.558 485.717 56.379C485.967 56.2 486.107 55.913 486.107 55.609V44.699C486.107 44.282 485.847 43.913 485.437 43.79C482.877 43.027 479.597 42.244 474.677 42.244C462.727 42.244 456.397 48.978 456.397 61.711V64.451H450.177C449.657 64.451 449.227 64.877 449.227 65.399V76.583C449.227 77.105 449.657 77.532 450.177 77.532H456.397V121.937C456.397 122.467 456.827 122.887 457.347 122.887H470.287C470.817 122.887 471.237 122.467 471.237 121.937V77.535H483.327L501.847 121.937C499.747 126.597 497.677 127.527 494.857 127.527C492.577 127.527 490.167 126.847 487.717 125.497C487.487 125.377 487.207 125.357 486.967 125.427C486.717 125.517 486.507 125.697 486.407 125.937L482.017 135.567C481.807 136.027 481.987 136.557 482.427 136.797C487.007 139.277 491.137 140.337 496.247 140.337C505.807 140.337 511.097 135.877 515.747 123.897L538.207 65.86C538.327 65.568 538.287 65.238 538.107 64.979C537.937 64.722 537.647 64.567 537.337 64.567H523.857C523.447 64.567 523.087 64.824 522.957 65.203L509.147 104.637L494.027 65.177C493.887 64.81 493.537 64.567 493.147 64.567H471.027V64.564ZM442.247 64.507H429.297C428.777 64.507 428.347 64.933 428.347 65.456V121.937C428.347 122.467 428.777 122.887 429.297 122.887H442.247C442.767 122.887 443.197 122.467 443.197 121.937V65.46C443.197 64.937 442.777 64.511 442.247 64.511V64.507ZM435.847 38.788C430.717 38.788 426.557 42.94 426.557 48.069C426.557 53.201 430.717 57.358 435.847 57.358C440.977 57.358 445.127 53.201 445.127 48.069C445.127 42.941 440.967 38.788 435.847 38.788ZM549.267 82.668C544.147 82.668 540.157 78.553 540.157 73.556C540.157 68.559 544.197 64.397 549.317 64.397C554.437 64.397 558.427 68.511 558.427 73.504C558.427 78.501 554.387 82.668 549.267 82.668ZM549.317 65.303C544.647 65.303 541.117 69.013 541.117 73.556C541.117 78.097 544.627 81.757 549.267 81.757C553.937 81.757 557.467 78.05 557.467 73.504C557.467 68.963 553.957 65.303 549.317 65.303ZM551.337 74.441L553.917 78.049H551.737L549.417 74.739H547.427V78.049H545.607V68.485H549.867C552.097 68.485 553.557 69.622 553.557 71.536C553.567 73.104 552.657 74.062 551.347 74.441H551.337ZM549.797 70.126H547.427V73.151H549.797C550.977 73.151 551.687 72.572 551.687 71.637C551.687 70.653 550.977 70.126 549.797 70.126Z" fill="#1ED760"/>
</svg>
