<svg width="18" height="18" viewBox="0 0 18 18" fill="none" xmlns="http://www.w3.org/2000/svg">
<path d="M17.7825 0.217571C17.6813 0.116826 17.5534 0.0470741 17.4139 0.0165162C17.2744 -0.0140417 17.1291 -0.00413506 16.995 0.0450714L0.495001 6.04507C0.352702 6.09905 0.230191 6.19503 0.143739 6.32029C0.0572872 6.44554 0.0109863 6.59413 0.0109863 6.74632C0.0109863 6.89851 0.0572872 7.0471 0.143739 7.17236C0.230191 7.29761 0.352702 7.3936 0.495001 7.44757L6.9375 10.0201L11.6925 5.25007L12.75 6.30757L7.9725 11.0851L10.5525 17.5276C10.6081 17.6671 10.7043 17.7868 10.8286 17.871C10.953 17.9553 11.0998 18.0002 11.25 18.0001C11.4016 17.997 11.5486 17.948 11.6718 17.8596C11.795 17.7713 11.8885 17.6476 11.94 17.5051L17.94 1.00507C17.9911 0.872379 18.0034 0.727894 17.9755 0.588464C17.9477 0.449034 17.8807 0.320404 17.7825 0.217571Z" fill="white"/>
</svg>
